<svg width="371" height="371" viewBox="0 0 371 371" fill="none" xmlns="http://www.w3.org/2000/svg">
<path d="M60.0755 29.2566C48.4059 31.3258 39.8708 38.461 36.0565 49.3779L35.1878 51.8752L34.8857 145.703C34.7347 197.291 34.6214 257.012 34.6969 278.418L34.8102 317.305L35.641 320.159C36.0942 321.729 37.265 324.547 38.2469 326.402C39.7197 329.292 40.5128 330.291 43.6096 333.217C47.3107 336.713 50.1431 338.497 54.2596 339.959C59.6601 341.85 51.8803 341.743 185.382 341.743C321.453 341.743 311.558 341.921 317.449 339.603C323.87 337.105 329.648 332.075 332.707 326.331C333.651 324.512 334.822 321.729 335.275 320.159C336.106 317.305 336.106 317.269 336.219 278.418C336.295 257.012 336.181 197.291 336.03 145.703L335.69 51.8752L334.822 49.3779C331.347 39.2102 324.361 32.8955 313.069 29.6847C310.954 29.0782 304.685 29.0425 186.402 29.0068C111.324 28.9712 61.2085 29.0782 60.0755 29.2566ZM75.5973 57.7261C77.7499 58.6536 79.4116 60.6872 79.9403 63.0418C80.1669 64.2191 80.2802 67.8937 80.2047 72.71L80.0914 80.4874L78.9584 82.2355C78.2031 83.3415 77.1834 84.3047 76.126 84.8755C74.4265 85.7674 74.351 85.7674 64.9851 85.7674C55.808 85.7674 55.5058 85.7318 53.7309 84.9112C52.5601 84.3761 51.5404 83.5555 50.8984 82.5923L49.8787 81.1296L49.7654 72.2105C49.6144 62.578 49.8032 61.4007 51.4649 59.5099C53.5043 57.2623 54.4862 57.0482 64.7962 57.0482C72.9914 57.0482 74.2377 57.1552 75.5973 57.7261ZM316.883 57.7261C318.733 58.5109 320.32 60.1877 320.848 61.9715C321.113 62.8277 321.226 66.4667 321.15 72.2105L321.037 81.1296L319.942 82.6279C319.3 83.5555 318.205 84.4474 317.11 84.9469C315.448 85.7318 314.995 85.7674 305.931 85.7674C297.434 85.7674 296.376 85.6961 295.168 85.0896C293.279 84.162 292.562 83.4842 291.655 81.8431C290.9 80.5231 290.825 79.7739 290.711 72.6743C290.56 63.7553 290.862 61.7575 292.6 59.7596C294.79 57.2266 295.659 57.0482 306.12 57.0482C314.277 57.0482 315.561 57.1552 316.883 57.7261ZM75.9749 100.573C77.7499 101.394 79.2605 103.249 79.8648 105.389C80.5068 107.673 80.3935 121.122 79.7137 123.299C78.9206 125.76 76.5792 127.83 73.8978 128.365C71.4052 128.864 58.2628 128.864 55.808 128.4C53.542 127.937 51.3516 126.26 50.4075 124.333C49.8032 123.049 49.6899 121.872 49.6899 114.201C49.6899 104.961 49.841 103.927 51.6915 102.036C53.6176 100.074 54.7128 99.8595 64.9473 99.8595C73.6712 99.8595 74.502 99.9308 75.9749 100.573ZM316.619 100.395C318.469 101.144 319.678 102.25 320.508 103.962C321.113 105.211 321.226 106.388 321.226 114.13C321.226 124.012 321.037 124.833 318.394 126.902C316.392 128.436 314.353 128.757 306.12 128.757C297.358 128.757 295.621 128.436 293.43 126.545C290.938 124.369 290.636 122.978 290.636 114.13C290.636 104.426 291.315 102.285 294.865 100.609C296.376 99.8952 297.094 99.8595 305.855 99.8595C313.446 99.8595 315.486 99.9665 316.619 100.395ZM175.563 152.874C186.213 158.903 196.335 164.647 198.11 165.682C199.884 166.716 203.623 168.821 206.418 170.427C209.213 171.996 214.84 175.172 218.881 177.455C222.922 179.774 227.227 182.2 228.435 182.878C229.606 183.555 230.588 184.233 230.588 184.412C230.588 184.59 230.097 184.983 229.455 185.304C228.851 185.589 212.158 195.008 192.369 206.245C172.58 217.448 156.076 226.688 155.736 226.795C155.094 226.938 155.056 224.726 155.056 184.233C155.056 145.596 155.094 141.529 155.661 141.743C155.963 141.85 164.951 146.881 175.563 152.874ZM74.6531 142.742C76.6547 143.384 77.9387 144.348 79.0339 146.167L80.0914 147.844V156.763C80.0914 165.218 80.0536 165.753 79.2605 167.109C78.3542 168.75 77.1834 169.82 75.484 170.641C74.4643 171.105 72.8026 171.212 64.9095 171.212C54.4862 171.212 53.5043 171.033 51.4649 168.75C49.8032 166.859 49.6144 165.682 49.7654 156.049L49.8787 147.13L50.9362 145.596C51.6915 144.49 52.5601 143.777 53.9574 143.17C55.8457 142.35 56.2234 142.314 64.6452 142.314C70.2345 142.314 73.8223 142.457 74.6531 142.742ZM316.958 143.206C318.205 143.812 319.262 144.669 319.942 145.632L321.037 147.13V156.834V166.502L319.904 168.072C319.224 168.964 318.054 169.927 317.072 170.391C315.486 171.176 314.995 171.212 306.233 171.212C298.793 171.212 296.754 171.105 295.621 170.676C293.846 169.963 292.675 168.893 291.655 167.109C290.862 165.753 290.825 165.218 290.825 156.763V147.844L291.882 146.167C292.977 144.419 294.526 143.135 296.225 142.671C296.792 142.492 301.248 142.35 306.157 142.35C314.919 142.314 315.07 142.314 316.958 143.206ZM75.635 186.017C76.8435 186.588 77.9387 187.48 78.6185 188.407L79.7137 189.87L79.827 198.896C79.9403 207.28 79.9026 208.029 79.185 209.278C78.2786 210.919 76.3148 212.774 74.8797 213.274C73.5579 213.773 56.1479 213.809 54.8638 213.345C53.3532 212.774 51.125 210.741 50.4075 209.207C49.8032 207.958 49.6899 206.745 49.6899 199.396C49.6899 190.298 49.9165 189.157 51.9936 187.266C54.184 185.304 55.2037 185.125 64.834 185.125C73.5957 185.125 73.7467 185.125 75.635 186.017ZM316.505 185.803C318.394 186.588 320.32 188.621 320.848 190.37C321.113 191.262 321.226 194.686 321.15 200.145L321.037 208.564L320.017 209.991C319.451 210.812 318.356 211.918 317.6 212.489L316.203 213.488H306.12H296.036L294.526 212.489C293.695 211.954 292.562 210.705 291.995 209.742L290.976 207.994L291.089 198.932L291.202 189.87L292.26 188.372C293.015 187.337 293.921 186.588 295.281 185.981C297.169 185.161 297.509 185.125 306.12 185.125C313.899 185.125 315.183 185.232 316.505 185.803ZM74.6909 228.293C76.5792 228.793 78.3542 230.255 79.185 232.039C79.7893 233.288 79.9026 234.501 79.9026 241.957C79.9026 251.09 79.7893 251.697 77.8254 253.909C75.6728 256.335 74.9552 256.477 64.6829 256.477H55.5058L53.7309 255.407C52.7867 254.836 51.5027 253.695 50.9362 252.838L49.8787 251.304L49.7654 242.92C49.6899 237.034 49.8032 234.073 50.1053 232.967C50.6718 231.076 52.7489 228.971 54.5995 228.4C56.2989 227.901 72.8026 227.829 74.6909 228.293ZM315.977 228.365C318.129 229.042 319.375 230.113 320.32 232.004C321.188 233.752 321.226 234.144 321.226 242.064V250.27L320.206 252.232C319.451 253.588 318.62 254.479 317.298 255.3L315.486 256.477H306.233C296.112 256.477 295.432 256.37 293.242 254.087C291.089 251.911 291.013 251.518 291.013 242.136C291.013 234.465 291.127 233.288 291.731 232.039C292.6 230.255 293.921 229.078 295.81 228.472C297.698 227.829 314.05 227.722 315.977 228.365ZM75.484 271.247C77.0701 271.854 78.9962 273.959 79.5249 275.635C79.7893 276.527 79.9026 279.988 79.827 285.589L79.7137 294.187L78.5807 295.721C77.9765 296.542 76.8058 297.683 75.9749 298.183L74.4643 299.11H64.7585H55.0527L53.4287 298.04C52.4091 297.362 51.3894 296.256 50.7474 295.043L49.6899 293.152V285.054C49.6899 280.63 49.8787 276.385 50.0676 275.671C50.5963 273.887 52.1447 272.21 54.033 271.426C55.3548 270.855 56.6388 270.748 64.9095 270.748C71.934 270.748 74.5776 270.855 75.484 271.247ZM317.072 271.533C318.054 272.032 319.224 272.995 319.904 273.887L321.037 275.457L321.15 284.055C321.264 291.297 321.188 292.867 320.66 294.151C319.866 296.078 317.374 298.468 315.599 298.968C314.73 299.182 310.954 299.289 305.327 299.217L296.414 299.11L294.865 298.111C293.997 297.576 292.826 296.47 292.26 295.65L291.202 294.187L291.089 285.161C290.976 276.777 291.013 276.028 291.731 274.779C292.637 273.067 294.375 271.533 295.772 271.105C296.376 270.962 301.021 270.783 306.12 270.783C315.032 270.748 315.486 270.783 317.072 271.533Z" fill="#AC4848"/>
</svg>
